<svg id="Layer_1" data-name="Layer 1" xmlns="http://www.w3.org/2000/svg" viewBox="0 0 28.7592 11.3323"><defs><style>.cls-1{fill:#fff;}</style></defs><title>Skribw</title><path class="cls-1" d="M.1473,5.4922A.1154.1154,0,0,1,.04,5.4075,2.8049,2.8049,0,0,1,.1832,3.9446a.0891.0891,0,0,1,.12-.0606.11.11,0,0,1,.0715.1329A2.5172,2.5172,0,0,0,.243,5.3711.1058.1058,0,0,1,.1473,5.4922ZM.243,6.06a.1023.1023,0,0,1,.0477-.1329.1.1,0,0,1,.1312.0483,2.896,2.896,0,0,0,.5853.8708.1008.1008,0,0,1,.0116.1452.102.102,0,0,1-.0714.0359.0981.0981,0,0,1-.0715-.0241A3.0776,3.0776,0,0,1,.243,6.06Zm4.5013,4.1231a2.4706,2.4706,0,0,1-2.46,1.1243A2.5532,2.5532,0,0,1,.3266,9.0108a.6927.6927,0,0,1,.4657-.8344.6889.6889,0,0,1,.8356.4716,2.5531,2.5531,0,0,0,.1074.5075c0,.0123.0715.1935.06.1693l-.0238-.0359c.0117.0241.0117.0359.0238.0359a.644.644,0,0,0,.06.133,1.3386,1.3386,0,0,1,.0836.1334l.0238.0359c.0117.0123.0355.0364.0355.0487a1.519,1.519,0,0,0,.1434.1329c-.0836-.0487.12.1088,0,.0118V9.8087c.0122.0118.0122.0118.0238.0118a1.0716,1.0716,0,0,0,.1556.097c-.12-.0364.1429.0724.0117,0,.0476.0241.2629.0606.2386.0606a1.7769,1.7769,0,0,0,.2508,0c-.119.0241.0958-.0123,0,0a.0525.0525,0,0,1,.036-.0123l.1313-.0365c.0359-.0118.0719-.0241.1074-.0359-.0355.0241-.06.0241.06-.0123H3.1324a.0424.0424,0,0,0,.0238-.0123A1.8965,1.8965,0,0,0,3.3234,9.76c-.0122.0123,0,.0123.06-.0359l-.06.0359a1.5,1.5,0,0,0,.1551-.1329l.0359-.0359.0477-.0606c.0238-.0487.06-.097.0836-.1575-.0477.1575.06-.1329,0,0,.0121-.0483.0476-.2176.0476-.1935V9.0349c.0122.0118.0122,0,0-.0605v.0605a1.945,1.945,0,0,0-.0476-.23.16.16,0,0,1-.0122-.06c.0122.0241-.0116-.0364,0,0-.0116-.0118-.0116-.0118-.0116-.0241a1.76,1.76,0,0,0-.0958-.1571.6856.6856,0,0,0-.0953-.1575L3.407,8.37c.06.0605-.06-.0847,0,0a.1672.1672,0,0,1-.036-.0488,3.45,3.45,0,0,0-.6567-.5921A5.356,5.356,0,0,1,.9114,5.94C.2907,4.7548.41,3.1466,1.8189,2.6386a2.0277,2.0277,0,0,1,1.803.2058,2.4788,2.4788,0,0,1,.943,2.14.6746.6746,0,0,1-1.3489,0,2.0386,2.0386,0,0,0-.06-.6045,1.0119,1.0119,0,0,0-.1551-.3022l-.0836-.0724c.0355.0241.0238.0118,0,0-.0121-.0123-.0238-.0123-.036-.0241a.74.74,0,0,0-.1074-.0487l-.12-.0483H2.6307c.1313,0-.1074-.0241,0,0H2.6069a.626.626,0,0,0-.5371.1452l-.072.0724a.21.21,0,0,0-.0476.0847.6779.6779,0,0,1-.0477.0969.3494.3494,0,0,0-.0238.1088c0,.0118,0,.0118-.0121.0118v.254a.5161.5161,0,0,1,.0238.1329c.0243.0729.036.1453.06.2058a3.3435,3.3435,0,0,0,.4059.6891c.5376.6045,1.2658.9432,1.815,1.5236A2.4421,2.4421,0,0,1,4.7443,10.1833Zm-2.9015-7.17a1.3044,1.3044,0,0,1,.1434-.0246c.0476-.0118.1074-.0118.1788-.0241.036,0,.072-.0118.1075-.0118h.2508a.5894.5894,0,0,1,.1434.0118c.0476,0,.0953.0123.1434.0123l.155.0364a1.5792,1.5792,0,0,1,.2985.1329.9792.9792,0,0,1,.2508.1935.8165.8165,0,0,1,.2027.254,1.604,1.604,0,0,1,.1434.29c.036.097.072.1935.0958.2781a2.5992,2.5992,0,0,1,.0476.2659,2.6806,2.6806,0,0,1,.0239.3992v.1211a.0922.0922,0,0,0-.0122.0359v.0123a.1061.1061,0,0,0,.1079.0965.1032.1032,0,0,0,.0953-.0965V4.8272a3.5264,3.5264,0,0,0-.0477-.4234c-.0238-.0846-.0359-.1811-.0719-.2781a1.51,1.51,0,0,0-.1074-.3022c-.0477-.0965-.1074-.2053-.1668-.3023a2.4556,2.4556,0,0,0-.2391-.254A1.0958,1.0958,0,0,0,3.3,3.0738a1.1762,1.1762,0,0,0-.3223-.1206c-.0481-.0123-.1079-.0123-.1556-.0241a.6052.6052,0,0,0-.155-.0124.4673.4673,0,0,0-.1313,0H2.392l-.1195.0124c-.0355,0-.0715.0118-.1075.0118l-.1788.0364Zm1.29,6.8674a.0435.0435,0,0,1-.036.0123Zm.382-.29c-.0359.0359-.0121,0,.0239-.0365Z"/><path class="cls-1" d="M11.41,7.6476a6.7943,6.7943,0,0,1-3.916-1.5235c0,.6768,0,1.366.0117,2.0433a.7283.7283,0,0,1-1.4564,0c-.0121-2.4908-.0238-4.9693-.0481-7.46a.7287.7287,0,0,1,1.4568,0c0,1.0278.0122,2.0551.0122,3.0829A6.5837,6.5837,0,0,0,9.8458.55c.2625-.9185,1.6595-.5316,1.3134.2782a7.2575,7.2575,0,0,1-2.77,4.1112c.0958.0724.1789.1329.2508.1935a5.0775,5.0775,0,0,0,2.77,1.04C12.3531,6.2087,12.3531,7.6835,11.41,7.6476ZM8.4964,4.2983l.1551-.1211c.0481-.0359.0957-.0846.1672-.1329l.2032-.1934c.0355-.0365.0836-.0724.1191-.1088a1.0686,1.0686,0,0,1,.1079-.1329A1.148,1.148,0,0,0,9.38,3.4881a1.292,1.292,0,0,1,.1191-.1452l.1318-.1571c.0354-.0482.0714-.0964.1191-.157.0359-.06.0836-.1088.12-.1693.0355-.0483.0715-.1088.1191-.1694a3.9269,3.9269,0,0,0,.2032-.3386c.0715-.1206.1313-.2417.2032-.3505.0593-.1211.1191-.23.1667-.3387a3.1849,3.1849,0,0,0,.1318-.3022c.0836-.1935.1429-.3505.191-.4716l.0476-.1329a.071.071,0,0,1,.0117-.0482V.6951A.1045.1045,0,0,0,10.86.5745a.11.11,0,0,0-.1312.0846.0957.0957,0,0,1-.0117.036.6492.6492,0,0,0-.036.1329c-.036.1088-.0836.2663-.155.46-.036.0965-.072.2053-.12.3141l-.1551.3268c-.0481.1206-.1074.2417-.1555.3505l-.2027.3628a1.91,1.91,0,0,0-.1075.1693,1.9353,1.9353,0,0,0-.1074.1694,1.4079,1.4079,0,0,0-.12.157.7564.7564,0,0,1-.12.157,1.6222,1.6222,0,0,1-.1074.1571l-.1191.1334c-.0359.0359-.06.0846-.0957.1206l-.1191.121c-.072.0724-.1313.1453-.1911.1935a1.5834,1.5834,0,0,1-.1672.1452A1.9069,1.9069,0,0,1,8.4964,4.2983Zm1.7193-.4233a.1156.1156,0,0,1,.0122.157c-.227.2781-.4064.4475-.4064.46a.1363.1363,0,0,1-.1551,0,.1183.1183,0,0,1,0-.1694s.1794-.1693.4059-.4351A.0966.0966,0,0,1,10.2157,3.875Zm1.015-2.031a.1073.1073,0,0,1,.1191-.097.1022.1022,0,0,1,.0958.1211,4.0994,4.0994,0,0,1-.979,1.8863.1282.1282,0,0,1-.0836.0359.1643.1643,0,0,1-.0715-.0241.1155.1155,0,0,1-.0243-.157A3.8659,3.8659,0,0,0,11.2307,1.844Z"/><path class="cls-1" d="M18.1955,9.7757a.7219.7219,0,0,1-.2509,1.0037.6549.6549,0,0,1-.3582.1088.7225.7225,0,0,1-.6329-.351L15.5088,8.0829a4.9891,4.9891,0,0,1-.9906.3263c0,.75.0116,1.4871.0116,2.225a.7105.7105,0,0,1-1.4208,0L13.0735,3.67a.6962.6962,0,0,1,.2741-.58l.072-.0606a3.1549,3.1549,0,0,1,2.7343-.4351A2.649,2.649,0,0,1,17.7774,4.359a2.8869,2.8869,0,0,1-.6091,2.539,2.8487,2.8487,0,0,1-.43.4234ZM14.4346,3.0166a1.012,1.012,0,0,1,.155-.0359l.2149-.0364a.4749.4749,0,0,0,.1312-.0123H15.21c.0476,0,.0957.0123.1434.0123s.1074.0123.155.0123l.1434.0359c.0477.0123.0958.0241.1434.0364.06.0242.1074.0365.1551.0606a3.1246,3.1246,0,0,1,.2868.1329c.0831.0605.1667.1211.2386.1811a1.5951,1.5951,0,0,1,.2028.1935l.1555.1816a1.74,1.74,0,0,1,.191.3264l.0477.097a.0957.0957,0,0,1,.0116.0359V4.25a.13.13,0,0,0,.1556.0483.12.12,0,0,0,.06-.1571l-.0238-.0364a.5656.5656,0,0,0-.06-.1088A1.8533,1.8533,0,0,0,16.99,3.67c-.06-.0606-.12-.133-.1911-.1935a1.2,1.2,0,0,0-.227-.1935,1.2762,1.2762,0,0,0-.2746-.1693,1.391,1.391,0,0,0-.31-.1329.7908.7908,0,0,0-.1556-.0487l-.1667-.036c-.0482,0-.0958-.0123-.1434-.0123a.7431.7431,0,0,0-.1551-.0118H15.21a.5906.5906,0,0,0-.1434.0118.5626.5626,0,0,0-.143.0123l-.1195.0118c-.0836.0242-.1551.0365-.2149.0488-.0714.0241-.1312.0359-.155.0482a.7535.7535,0,0,0-.1434.0483Zm.7519,3.6156A2.735,2.735,0,0,0,16.07,5.979a1.7051,1.7051,0,0,0,.3461-.6892c.0121-.0364.0121-.06.0238-.0723V5l-.0117-.1334c-.0121-.0359-.0121-.0842-.0243-.1206l-.0593-.1693a1.1862,1.1862,0,0,0-.06-.1211l-.0719-.1088c-.0238-.0241-.0715-.0847-.0831-.0965a1.0755,1.0755,0,0,0-.12-.1088c-.0238-.0123-.072-.0605-.0958-.0605a1.3344,1.3344,0,0,0-.191-.1088c-.0117-.0123-.0355-.0123-.0477-.0241-.0714-.0123-.1312-.0365-.2027-.0483-.0121,0-.0243-.0123-.0359-.0123h-.3583a.042.042,0,0,1-.0238.0123,2.4169,2.4169,0,0,0-.5614.1689c.0121.9431.0121,1.91.0121,2.8535A4.3,4.3,0,0,0,15.1865,6.6322Z"/><path class="cls-1" d="M18.9232,3.5077a.713.713,0,0,1,.4773-.87l1.1462-.3264a.6872.6872,0,0,1,.8478.4957.6987.6987,0,0,1-.4536.8462c.0355,1.9586.0836,3.9055.1191,5.8518l.1074-.0359a.7084.7084,0,0,1,.37,1.366l-1.767.4716a.7089.7089,0,0,1-.37-1.366l.2746-.0729c-.0359-1.9463-.0714-3.8932-.12-5.8395A.7181.7181,0,0,1,18.9232,3.5077Zm1.5759.5562.1672,4.57L20.63,4.0521c0-.0364-.0238-.0606-.0714-.0606A.0675.0675,0,0,0,20.4991,4.0639Z"/><path class="cls-1" d="M23.3826,7.6676a.5962.5962,0,0,1,.2027-.64V3.5932a.53.53,0,0,1,.2387-.4715c.0121-.0242.0359-.0242.06-.0483a2.539,2.539,0,0,1,2.257-.351,2.1834,2.1834,0,0,1,1.3372,1.4512,2.3217,2.3217,0,0,1-.3466,1.8858,1.7235,1.7235,0,0,1,1.051.6291,2.5227,2.5227,0,0,1,.0238,3.18,5.8232,5.8232,0,0,1-4.0117,1.463.594.594,0,0,1-.5853-.7979v-.0242c-.0117-.7137-.0117-1.5963-.0117-2.5154A.6.6,0,0,1,23.3826,7.6676Zm1.8505-3.8691a1.925,1.925,0,0,0-.4778.1334c.0122.701.0122,1.523.0238,2.3574a2.769,2.769,0,0,0,.5493-.23,2.6165,2.6165,0,0,0,.74-.5439,1.2631,1.2631,0,0,0,.2747-.5681.5634.5634,0,0,0,.0238-.0605c0-.0606.0122-.1211.0122-.1812,0-.0246-.0239-.1334-.0239-.1093,0-.0359-.0121-.06-.0121-.0964-.0117-.0365-.0836-.1935-.0477-.133a1.1434,1.1434,0,0,0-.06-.121.3614.3614,0,0,0-.06-.0847c-.0117-.0241-.06-.0606-.06-.0847a.6679.6679,0,0,0-.0953-.0846L25.95,3.9437a.9769.9769,0,0,0-.1555-.0847c-.0117,0-.0117,0-.0238-.0118h-.036a.8536.8536,0,0,0-.1667-.0487l-.0243-.0118h-.2985Zm1.17,3.47a.2055.2055,0,0,1-.0836.0118h-.036a.4728.4728,0,0,1-.1789.0364,3.13,3.13,0,0,0-.3582.1088c-.12.0364-.227.0723-.3461.1211a.8121.8121,0,0,1-.1556.06c-.0355.0123-.0355.0246-.0593.0246v.0119a2.9322,2.9322,0,0,0-.4064.1816v2.188a7.1529,7.1529,0,0,0,1.015-.2175c.2149-.0724.418-.1329.6207-.2176l.06-.0241a.7611.7611,0,0,1,.1434-.0606c.0958-.0482.1789-.1088.2625-.157a1.4434,1.4434,0,0,0,.1794-.1088.0117.0117,0,0,1,.0117-.0123c.0121,0,.0121,0,.0121-.0118.0715-.0606.1434-.1329.2032-.1935a.3936.3936,0,0,1,.0593-.0728.1211.1211,0,0,1,.0481-.06l.0593-.1334a.0117.0117,0,0,1,.0122-.0118V8.72a1.0245,1.0245,0,0,0,.0476-.2053.012.012,0,0,1,.0122-.0123V8.49a2.2137,2.2137,0,0,0-.0122-.2781l-.0117-.1088a1.0511,1.0511,0,0,1-.0481-.1816,1.2267,1.2267,0,0,0-.1429-.3146.18.18,0,0,1-.036-.06.12.12,0,0,1-.0476-.0606c-.0238-.0123-.1672-.1211-.06-.06-.036-.0241-.0836-.0483-.1312-.0847A.0446.0446,0,0,1,27,7.3294h-.0238c-.06-.0123-.1074-.0364-.1672-.0487h-.0477a.0117.0117,0,0,0-.0121-.0118A3.2463,3.2463,0,0,0,26.4032,7.2689Zm1.3013,2.5754a1.88,1.88,0,0,1-.2266.2053c-.0359.0364-.0836.06-.12.0969a.2545.2545,0,0,0-.06.0483l-.0715.0364c-.036.0241-.0836.06-.12.0842-.0476.0123-.0714.0487-.1191.0728-.0957.0365-.1672.0724-.2508.1088a.6059.6059,0,0,1-.191.0724,1.4165,1.4165,0,0,1-.1672.06.8277.8277,0,0,0-.1313.0483.475.475,0,0,1,.1429-.036c.036-.0123.0958-.0241.1556-.0487s.1312-.0359.2148-.0724A1.8867,1.8867,0,0,0,27,10.4124c.0476-.0123.0836-.0365.1312-.0483a.4922.4922,0,0,1,.1313-.0846c.0243,0,.0481-.0242.0719-.0365a.2761.2761,0,0,1,.06-.0364,1.2958,1.2958,0,0,1,.1313-.0965,1.8832,1.8832,0,0,0,.2508-.2057c.0355-.0242.0714-.0724.1191-.1088.036-.036.06-.0965.1074-.1329l.1074-.1211a.7809.7809,0,0,0,.0836-.1329.4942.4942,0,0,0,.0837-.1329l.0719-.1211a.65.65,0,0,1,.0593-.1329c.0122-.0119.0122-.036.0243-.06a.0936.0936,0,0,0,.0117-.0605c.0238-.0365.0238-.0729.0476-.1088a.3336.3336,0,0,0,.0122-.1088.6143.6143,0,0,0,.0359-.1935,1.1745,1.1745,0,0,0,.0117-.1452c0-.0482-.0238-.1088-.0836-.1088a.0924.0924,0,0,0-.0953.0847v.0241a1.0449,1.0449,0,0,1-.0121.1329.824.824,0,0,1-.0117.157.4521.4521,0,0,0-.0122.1211l-.0359.0965a.5116.5116,0,0,1-.0117.0606c-.0121.0123-.0121.0487-.0238.06a.8383.8383,0,0,1-.0481.1211.517.517,0,0,0-.0477.1206.7412.7412,0,0,0-.0714.1334c-.036.0359-.06.0842-.0958.1206l-.0836.1211a1.0251,1.0251,0,0,1-.1074.1206A.5736.5736,0,0,1,27.7045,9.8443Z"/><rect class="cls-1" x="6.0008" y="9.9323" width="5.7584" height="1.4" rx="0.7"/></svg>